<?xml version="1.0" encoding="UTF-8" standalone="no"?>
<svg
   xmlns:dc="http://purl.org/dc/elements/1.1/"
   xmlns:cc="http://creativecommons.org/ns#"
   xmlns:rdf="http://www.w3.org/1999/02/22-rdf-syntax-ns#"
   xmlns:svg="http://www.w3.org/2000/svg"
   xmlns="http://www.w3.org/2000/svg"
   xmlns:sodipodi="http://sodipodi.sourceforge.net/DTD/sodipodi-0.dtd"
   xmlns:inkscape="http://www.inkscape.org/namespaces/inkscape"
   id="Ebene_1"
   data-name="Ebene 1"
   viewBox="0 0 17 17"
   version="1.1"
   sodipodi:docname="up_Symbol.svg"
   inkscape:export-filename="/home/olli/Downloads/icon-128x128.png"
   inkscape:export-xdpi="722.78491"
   inkscape:export-ydpi="722.78491"
   inkscape:version="0.92.1 r15371">
  <metadata
     id="metadata76">
    <rdf:RDF>
      <cc:Work
         rdf:about="">
        <dc:format>image/svg+xml</dc:format>
        <dc:type
           rdf:resource="http://purl.org/dc/dcmitype/StillImage" />
        <dc:title>up_Symbol</dc:title>
      </cc:Work>
    </rdf:RDF>
  </metadata>
  <sodipodi:namedview
     pagecolor="#ffffff"
     bordercolor="#666666"
     borderopacity="1"
     objecttolerance="10"
     gridtolerance="10"
     guidetolerance="10"
     inkscape:pageopacity="0"
     inkscape:pageshadow="2"
     inkscape:window-width="1916"
     inkscape:window-height="1041"
     id="namedview74"
     showgrid="false"
     inkscape:pagecheckerboard="true"
     inkscape:zoom="50.764706"
     inkscape:cx="5.269409"
     inkscape:cy="8.5"
     inkscape:window-x="0"
     inkscape:window-y="37"
     inkscape:window-maximized="0"
     inkscape:current-layer="Ebene_1" />
  <defs
     id="defs65">
    <style
       id="style63">.cls-1{fill:#009aa3;}</style>
  </defs>
  <title
     id="title67">up_Symbol</title>
  <rect
     style="fill:#f2f2f2"
     id="rect78"
     width="15.621089"
     height="14.714948"
     x="0.74855155"
     y="1.142526" />
  <path
     class="cls-1"
     d="M15.16,0H1.84A1.8,1.8,0,0,0,0,1.84V15.16A1.8,1.8,0,0,0,1.84,17H15.16A1.8,1.8,0,0,0,17,15.16V1.84A1.8,1.8,0,0,0,15.16,0ZM8.08,8.91a3,3,0,0,1-.76,2.2,2.82,2.82,0,0,1-2.13.8,2.8,2.8,0,0,1-2.12-.8,3.07,3.07,0,0,1-.75-2.2V7.54A2.09,2.09,0,0,1,3.85,5.36V9.11a1.57,1.57,0,0,0,.31,1.1,1.32,1.32,0,0,0,1,.34,1.36,1.36,0,0,0,1-.34,1.57,1.57,0,0,0,.31-1.1V5.26H5.42l1.9-2.14L9.21,5.26H8.08Zm5.84,2.17a2.81,2.81,0,0,1-2.2.85,4.57,4.57,0,0,1-1.05-.12v.48a1.88,1.88,0,0,1-.55,1.36,2.26,2.26,0,0,1-1,.6V7.46a2,2,0,0,1,.66-1.52,2.86,2.86,0,0,1,2-.64,4.48,4.48,0,0,1,.64,0,3.09,3.09,0,0,1,.74.27,2.34,2.34,0,0,1,.73.55,2.83,2.83,0,0,1,.53,1,4.66,4.66,0,0,1,.22,1.51A3.45,3.45,0,0,1,13.92,11.08Z"
     id="path69" />
  <path
     class="cls-1"
     d="M11.82,6.63c-.76,0-1.15.23-1.15.68v3.34a6.86,6.86,0,0,0,.95.07,1.44,1.44,0,0,0,1.13-.43,2.32,2.32,0,0,0,.39-1.54,3.29,3.29,0,0,0-.29-1.62A1.09,1.09,0,0,0,11.82,6.63Z"
     id="path71" />
</svg>
